<?xml version="1.0" encoding="utf-8"?><svg version="1.1" id="Layer_1" xmlns="http://www.w3.org/2000/svg" xmlns:xlink="http://www.w3.org/1999/xlink" x="0px" y="0px" viewBox="0 0 122.88 37.031" enable-background="new 0 0 122.88 37.031" xml:space="preserve"><g><path fill-rule="evenodd" clip-rule="evenodd" fill="#F59900" d="M79.204,25.568c-0.913-1.17-6.036-0.555-8.338-0.277 c-0.697,0.082-0.805-0.527-0.177-0.969c4.088-2.869,10.784-2.041,11.562-1.08c0.784,0.971-0.206,7.684-4.035,10.887 c-0.59,0.494-1.15,0.23-0.889-0.42C78.189,31.557,80.119,26.738,79.204,25.568L79.204,25.568z M76.233,28.961 c-7.14,5.268-17.49,8.07-26.404,8.07c-12.492,0-23.741-4.617-32.253-12.305c-0.668-0.604-0.072-1.428,0.731-0.961 c9.184,5.346,20.542,8.564,32.272,8.564c7.913,0,16.611-1.643,24.615-5.037C76.402,26.779,77.414,28.088,76.233,28.961 L76.233,28.961z"/><path fill-rule="evenodd" clip-rule="evenodd" fill="#0B0B0A" d="M111.737,21.467h-3.789c-0.381-0.025-0.682-0.328-0.682-0.701 L107.26,1.238c0.032-0.357,0.348-0.637,0.73-0.637l3.527-0.001c0.332,0.018,0.606,0.244,0.677,0.546v2.986h0.071 c1.065-2.671,2.556-3.943,5.183-3.943c1.703,0,3.373,0.616,4.438,2.301c0.994,1.561,0.994,4.188,0.994,6.079v12.283 c-0.042,0.346-0.354,0.615-0.729,0.615h-3.813c-0.353-0.023-0.637-0.283-0.677-0.615V10.253c0-2.136,0.248-5.258-2.379-5.258 c-0.923,0-1.775,0.616-2.201,1.561c-0.532,1.192-0.604,2.382-0.604,3.698v10.51C112.472,21.152,112.143,21.467,111.737,21.467 L111.737,21.467z M25.428,21.467h-3.803c-0.362-0.025-0.65-0.297-0.68-0.645l0.003-19.519c0-0.391,0.328-0.703,0.734-0.703 L25.223,0.6c0.371,0.019,0.668,0.299,0.691,0.656v2.548h0.072c0.923-2.465,2.662-3.615,5.005-3.615c2.378,0,3.87,1.15,4.935,3.615 c0.923-2.465,3.018-3.615,5.254-3.615c1.598,0,3.337,0.657,4.402,2.136c1.207,1.644,0.96,4.026,0.96,6.121l-0.004,12.318 c0,0.389-0.328,0.703-0.734,0.703h-3.798c-0.382-0.025-0.682-0.328-0.682-0.701l-0.001-10.349c0-0.82,0.071-2.875-0.107-3.655 c-0.283-1.315-1.136-1.685-2.236-1.685c-0.923,0-1.882,0.616-2.273,1.602c-0.39,0.987-0.354,2.629-0.354,3.738v10.347 c0,0.389-0.328,0.703-0.733,0.703H31.82c-0.382-0.025-0.683-0.328-0.683-0.701l-0.003-10.349c0-2.177,0.355-5.38-2.343-5.38 c-2.734,0-2.627,3.121-2.627,5.38l-0.001,10.347C26.162,21.152,25.833,21.467,25.428,21.467L25.428,21.467z M15.041,21.418 c-0.251,0.225-0.615,0.24-0.898,0.088c-1.264-1.051-1.491-1.535-2.18-2.534c-2.088,2.126-3.566,2.765-6.27,2.765 C2.491,21.736,0,19.76,0,15.808c0-3.087,1.672-5.187,4.056-6.216c2.063-0.906,4.946-1.07,7.151-1.318V7.781 c0-0.906,0.071-1.976-0.462-2.758c-0.463-0.7-1.353-0.988-2.135-0.988c-1.45,0-2.741,0.743-3.057,2.283 C5.487,6.661,5.237,7,4.893,7.018L1.207,6.619c-0.312-0.07-0.658-0.32-0.568-0.796C1.485,1.351,5.523,0,9.144,0 c1.85,0,4.27,0.494,5.728,1.894c1.85,1.729,1.672,4.035,1.672,6.546v5.924c0,1.783,0.74,2.564,1.435,3.524 c0.243,0.347,0.298,0.758-0.012,1.011c-0.777,0.651-2.158,1.85-2.917,2.526L15.041,21.418L15.041,21.418z M11.207,12.144 c0,1.482,0.036,2.717-0.711,4.035c-0.604,1.069-1.565,1.729-2.632,1.729c-1.458,0-2.313-1.112-2.313-2.759 c0-3.239,2.906-3.828,5.657-3.828V12.144L11.207,12.144z M64.896,21.418c-0.251,0.225-0.614,0.24-0.897,0.088 c-1.263-1.051-1.489-1.535-2.18-2.534c-2.087,2.126-3.566,2.765-6.27,2.765c-3.202,0-5.692-1.977-5.692-5.928 c0-3.087,1.672-5.187,4.056-6.216c2.063-0.906,4.945-1.07,7.151-1.318l0-0.494c0-0.906,0.071-1.976-0.463-2.758 c-0.463-0.7-1.352-0.988-2.135-0.988c-1.45,0-2.739,0.743-3.057,2.283c-0.066,0.343-0.316,0.683-0.66,0.7l-3.687-0.399 c-0.312-0.07-0.657-0.32-0.568-0.796C51.343,1.351,55.381,0,59,0c1.851,0,4.27,0.494,5.728,1.894 c1.851,1.729,1.672,4.035,1.672,6.546v5.924c0,1.783,0.74,2.564,1.436,3.524c0.244,0.347,0.298,0.758-0.013,1.011 c-0.775,0.651-2.156,1.85-2.916,2.526L64.896,21.418L64.896,21.418z M61.064,12.144c0,1.482,0.035,2.717-0.712,4.035 c-0.604,1.069-1.566,1.729-2.633,1.729c-1.458,0-2.312-1.112-2.312-2.759c0-3.239,2.906-3.828,5.657-3.828L61.064,12.144 L61.064,12.144z M71.028,4.045V1.256c0.003-0.425,0.322-0.708,0.707-0.706l12.502-0.001c0.399,0,0.721,0.291,0.721,0.704v2.392 c-0.004,0.401-0.342,0.924-0.941,1.756l-6.476,9.245c2.403-0.056,4.946,0.305,7.131,1.532c0.492,0.277,0.624,0.687,0.663,1.088 v2.977c0,0.41-0.45,0.885-0.922,0.637c-3.847-2.015-8.953-2.235-13.208,0.025c-0.435,0.23-0.89-0.236-0.89-0.646v-2.83 c0-0.453,0.009-1.227,0.466-1.917l7.502-10.764l-6.532,0C71.352,4.748,71.031,4.463,71.028,4.045L71.028,4.045z M95.754,4.174 c-2.804,0-2.981,3.819-2.981,6.201c0,2.383-0.035,7.476,2.947,7.476c2.947,0,3.089-4.107,3.089-6.612 c0-1.643-0.071-3.615-0.569-5.176C97.814,4.707,96.961,4.174,95.754,4.174L95.754,4.174z M95.72,0.189 c5.645,0,8.697,4.848,8.697,11.009c0,5.955-3.372,10.679-8.697,10.679c-5.538,0-8.556-4.848-8.556-10.885 C87.164,4.913,90.217,0.189,95.72,0.189L95.72,0.189z"/></g></svg>