<svg version="1.1" id="Layer_1" xmlns="http://www.w3.org/2000/svg" xmlns:xlink="http://www.w3.org/1999/xlink" x="0px" y="0px"
	 width="100%" viewBox="0 0 538 463" enable-background="new 0 0 538 463" xml:space="preserve">
<path fill="#F1E9A2" opacity="1.000000" stroke="none" 
	d="
M280.949860,105.853897 
	C284.101562,102.666679 287.253265,99.479469 290.872803,96.532318 
	C291.560394,98.900307 291.971466,101.028160 291.972351,103.156181 
	C292.005066,183.069870 291.990356,262.983582 292.045959,342.897247 
	C292.047638,345.327911 292.729584,347.758087 293.094360,350.188507 
	C289.593903,353.690460 286.093445,357.192413 282.281311,360.412781 
	C281.646210,357.175323 281.042633,354.219666 281.040192,351.263489 
	C280.972717,269.460327 280.966339,187.657104 280.949860,105.853897 
z"/>
<path fill="#D8C887" opacity="1.000000" stroke="none" 
	d="
M317.105591,327.493469 
	C314.645691,329.932037 312.185791,332.370605 309.130005,334.669678 
	C308.356079,332.398865 308.023285,330.267609 308.022339,328.136261 
	C307.985107,245.402496 307.978210,162.668732 307.967285,79.934967 
	C310.454834,77.436363 312.942413,74.937759 315.737518,72.724297 
	C316.362976,75.795502 316.954712,78.581238 316.958038,81.367683 
	C317.014771,129.128769 316.985535,176.889923 317.003204,224.651062 
	C317.015900,258.931854 317.069977,293.212646 317.105591,327.493469 
z"/>
<path fill="#E1D591" opacity="1.000000" stroke="none" 
	d="
M307.670044,80.086319 
	C307.978210,162.668732 307.985107,245.402496 308.022339,328.136261 
	C308.023285,330.267609 308.356079,332.398865 308.844269,334.838440 
	C306.639191,337.671692 304.123993,340.196655 301.012634,342.618469 
	C299.944733,340.126373 299.065582,337.738159 299.061462,335.348419 
	C298.980499,288.434479 299.014130,241.520401 298.997009,194.606339 
	C298.984131,159.338516 298.932770,124.070694 298.898529,88.802872 
	C301.723267,85.947807 304.548035,83.092735 307.670044,80.086319 
z"/>
<path fill="#C8B476" opacity="1.000000" stroke="none" 
	d="
M249.083405,392.177734 
	C247.567108,393.694794 246.050797,395.211823 243.899078,396.647369 
	C242.842453,394.530060 242.058243,392.495026 242.053970,390.458313 
	C241.979248,354.835480 242.026825,319.212341 241.923721,283.589661 
	C241.918350,281.734650 240.805923,279.882874 240.208893,278.029572 
	C240.186890,273.949554 240.164902,269.869568 240.548828,265.265198 
	C241.303131,263.204559 241.953339,261.668701 241.955688,260.131866 
	C242.012421,223.035095 242.016876,185.938217 241.945343,148.841507 
	C241.942078,147.149887 241.140900,145.459793 240.711365,143.768997 
	C242.911484,141.587723 245.111588,139.406448 247.905731,137.371338 
	C248.666519,141.983414 248.975693,146.449203 248.978851,150.915222 
	C249.035721,231.336044 249.055603,311.756897 249.083405,392.177734 
z"/>
<path fill="#EAE09B" opacity="1.000000" stroke="none" 
	d="
M298.574402,88.903717 
	C298.932770,124.070694 298.984131,159.338516 298.997009,194.606339 
	C299.014130,241.520401 298.980499,288.434479 299.061462,335.348419 
	C299.065582,337.738159 299.944733,340.126373 300.714172,342.763702 
	C298.587769,345.335114 296.163696,347.658142 293.416992,350.084839 
	C292.729584,347.758087 292.047638,345.327911 292.045959,342.897247 
	C291.990356,262.983582 292.005066,183.069870 291.972351,103.156181 
	C291.971466,101.028160 291.560394,98.900307 291.173309,96.390350 
	C293.420776,93.673744 295.835541,91.339157 298.574402,88.903717 
z"/>
<path fill="#D8C887" opacity="1.000000" stroke="none" 
	d="
M263.997620,377.994995 
	C261.975800,379.988739 259.953949,381.982452 257.277100,383.783508 
	C256.415161,381.470459 256.028046,379.350128 256.027222,377.229675 
	C255.996429,297.365234 256.017731,217.500809 255.915527,137.636505 
	C255.912674,135.414505 254.638290,133.194153 253.956848,130.973022 
	C256.385010,128.704468 258.813141,126.435913 261.847168,124.313507 
	C262.635406,126.590218 262.976349,128.720718 262.977081,130.851349 
	C263.004242,210.447159 262.989899,290.042999 263.042023,369.638794 
	C263.043854,372.424408 263.665070,375.209595 263.997620,377.994995 
z"/>
<path fill="#D0BD7E" opacity="1.000000" stroke="none" 
	d="
M253.660919,131.112930 
	C254.638290,133.194153 255.912674,135.414505 255.915527,137.636505 
	C256.017731,217.500809 255.996429,297.365234 256.027222,377.229675 
	C256.028046,379.350128 256.415161,381.470459 256.964111,383.878784 
	C254.762604,386.729767 252.219070,389.292755 249.379456,392.016754 
	C249.055603,311.756897 249.035721,231.336044 248.978851,150.915222 
	C248.975693,146.449203 248.666519,141.983414 248.196075,137.215576 
	C249.716599,135.026703 251.540802,133.139771 253.660919,131.112930 
z"/>
<path fill="#C1AA6E" opacity="1.000000" stroke="none" 
	d="
M327.997284,60.991035 
	C329.818024,59.144558 331.638794,57.298088 333.812073,55.732891 
	C334.443420,58.296593 334.961182,60.578602 334.965149,62.861504 
	C335.018921,93.735161 334.969757,124.609047 335.080353,155.482391 
	C335.086945,157.317978 336.233521,159.149460 336.849609,160.982849 
	C335.686279,166.293503 334.664917,171.640213 333.328613,176.906998 
	C330.885742,186.535156 332.503632,195.572327 336.573120,204.857498 
	C335.855347,206.958694 335.059479,208.489624 335.055908,210.022369 
	C334.983368,241.285675 334.969635,272.549316 335.086731,303.812378 
	C335.093201,305.543915 336.333832,307.270905 337.000031,309.000000 
	C334.565765,311.343567 332.131500,313.687134 329.355927,315.717926 
	C328.678070,312.121063 328.049835,308.837189 328.047546,305.552856 
	C327.990601,224.032288 327.999817,142.511658 327.997284,60.991035 
z"/>
<path fill="#EAE09B" opacity="1.000000" stroke="none" 
	d="
M280.659729,106.024460 
	C280.966339,187.657104 280.972717,269.460327 281.040192,351.263489 
	C281.042633,354.219666 281.646210,357.175323 281.979584,360.550781 
	C280.179321,362.844421 278.369141,364.718536 276.203705,366.315063 
	C275.564453,363.581055 275.033508,361.124695 275.032196,358.668091 
	C274.988770,278.887238 275.005188,199.106354 274.954590,119.325493 
	C274.953033,116.886650 274.333740,114.448196 274.002441,112.009552 
	C276.124817,110.071373 278.247192,108.133202 280.659729,106.024460 
z"/>
<path fill="#D0BD7E" opacity="1.000000" stroke="none" 
	d="
M317.424652,327.339294 
	C317.069977,293.212646 317.015900,258.931854 317.003204,224.651062 
	C316.985535,176.889923 317.014771,129.128769 316.958038,81.367683 
	C316.954712,78.581238 316.362976,75.795502 316.037872,72.606491 
	C317.774719,70.537376 319.518768,68.871208 321.866577,67.350021 
	C322.647278,69.624992 322.978302,71.754944 322.979004,73.885002 
	C323.005341,154.248322 322.992767,234.611649 323.049286,314.974945 
	C323.050720,317.017517 323.766632,319.059601 324.149353,321.101898 
	C322.014160,323.129669 319.878937,325.157410 317.424652,327.339294 
z"/>
<path fill="#E1D591" opacity="1.000000" stroke="none" 
	d="
M273.703735,112.144386 
	C274.333740,114.448196 274.953033,116.886650 274.954590,119.325493 
	C275.005188,199.106354 274.988770,278.887238 275.032196,358.668091 
	C275.033508,361.124695 275.564453,363.581055 275.904694,366.433838 
	C274.211823,368.481537 272.462708,370.132904 270.116516,371.642456 
	C269.345886,369.366180 269.021271,367.231750 269.020599,365.097168 
	C268.994781,284.775879 269.006653,204.454620 268.954285,124.133377 
	C268.952942,122.075264 268.290558,120.017570 267.936432,117.959686 
	C269.759308,116.066200 271.582184,114.172707 273.703735,112.144386 
z"/>
<path fill="#DED08D" opacity="1.000000" stroke="none" 
	d="
M267.646484,118.109634 
	C268.290558,120.017570 268.952942,122.075264 268.954285,124.133377 
	C269.006653,204.454620 268.994781,284.775879 269.020599,365.097168 
	C269.021271,367.231750 269.345886,369.366180 269.832184,371.800659 
	C268.295410,373.975006 266.445862,375.849365 264.296967,377.859375 
	C263.665070,375.209595 263.043854,372.424408 263.042023,369.638794 
	C262.989899,290.042999 263.004242,210.447159 262.977081,130.851349 
	C262.976349,128.720718 262.635406,126.590218 262.138123,124.154076 
	C263.667633,121.985527 265.512085,120.122551 267.646484,118.109634 
z"/>
<path fill="#C8B476" opacity="1.000000" stroke="none" 
	d="
M324.427979,320.947876 
	C323.766632,319.059601 323.050720,317.017517 323.049286,314.974945 
	C322.992767,234.611649 323.005341,154.248322 322.979004,73.885002 
	C322.978302,71.754944 322.647278,69.624992 322.154846,67.200104 
	C323.691315,65.022842 325.543182,63.140461 327.696167,61.124561 
	C327.999817,142.511658 327.990601,224.032288 328.047546,305.552856 
	C328.049835,308.837189 328.678070,312.121063 329.043274,315.855988 
	C327.616821,317.802490 326.161682,319.298157 324.427979,320.947876 
z"/>
<path fill="#9E7B48" opacity="1.000000" stroke="none" 
	d="
M359.076477,224.942383 
	C364.622131,227.954285 370.263245,230.804413 375.695160,234.009048 
	C390.768158,242.901520 392.069092,256.908905 378.992035,269.651093 
	C372.317627,276.154663 365.423645,282.432922 358.323547,288.487244 
	C358.015411,268.967194 357.983063,249.772797 358.056366,230.578781 
	C358.063568,228.698700 358.720917,226.821121 359.076477,224.942383 
z"/>
<path fill="#9E7B48" opacity="1.000000" stroke="none" 
	d="
M213.809631,232.143494 
	C207.315811,228.455856 200.563416,225.152740 194.384308,220.997162 
	C182.999222,213.340485 181.721329,200.080994 191.356918,190.198029 
	C198.088318,183.293854 205.322937,176.880295 213.028824,170.216293 
	C214.146408,171.677124 214.927368,173.167511 214.934601,174.661636 
	C215.019913,192.282394 215.018723,209.903870 214.938202,227.524673 
	C214.931152,229.065964 214.202896,230.603958 213.809631,232.143494 
z"/>
<path fill="#C1AA6E" opacity="1.000000" stroke="none" 
	d="
M240.410706,143.896362 
	C241.140900,145.459793 241.942078,147.149887 241.945343,148.841507 
	C242.016876,185.938217 242.012421,223.035095 241.955688,260.131866 
	C241.953339,261.668701 241.303131,263.204559 240.583817,264.854858 
	C237.564041,258.855896 234.915207,252.742996 232.500687,246.224091 
	C233.157486,244.163605 233.943741,242.510101 233.948212,240.854507 
	C234.023865,212.803787 234.022934,184.752731 233.957626,156.701950 
	C233.953140,154.772537 233.307480,152.844620 232.959991,150.916000 
	C235.343353,148.618576 237.726700,146.321152 240.410706,143.896362 
z"/>
<path fill="#C1AA6E" opacity="1.000000" stroke="none" 
	d="
M240.103882,278.412964 
	C240.805923,279.882874 241.918350,281.734650 241.923721,283.589661 
	C242.026825,319.212341 241.979248,354.835480 242.053970,390.458313 
	C242.058243,392.495026 242.842453,394.530060 243.598404,396.766907 
	C241.608765,399.295410 239.284378,401.622894 236.310776,403.786530 
	C235.441452,401.676727 235.032654,399.731110 235.029663,397.784821 
	C234.987732,370.548889 235.043304,343.312622 234.902191,316.077362 
	C234.893219,314.345367 233.461166,312.620758 232.691162,310.892700 
	C235.127075,300.193909 237.562973,289.495148 240.103882,278.412964 
z"/>
<path fill="#BCA469" opacity="1.000000" stroke="none" 
	d="
M336.979187,160.690247 
	C336.233521,159.149460 335.086945,157.317978 335.080353,155.482391 
	C334.969757,124.609047 335.018921,93.735161 334.965149,62.861504 
	C334.961182,60.578602 334.443420,58.296593 334.110291,55.618126 
	C336.113098,53.210724 338.170166,51.199364 340.841187,49.336205 
	C341.637177,51.281197 341.974854,53.077736 341.977631,54.874805 
	C342.013397,77.849503 341.953094,100.824570 342.096344,123.798431 
	C342.107300,125.561241 343.468781,127.315636 344.202515,129.073944 
	C342.251129,137.794540 340.304077,146.516083 338.344788,155.234909 
	C337.956818,156.961212 337.522003,158.677002 336.979187,160.690247 
z"/>
<path fill="#BCA469" opacity="1.000000" stroke="none" 
	d="
M337.298279,308.866852 
	C336.333832,307.270905 335.093201,305.543915 335.086731,303.812378 
	C334.969635,272.549316 334.983368,241.285675 335.055908,210.022369 
	C335.059479,208.489624 335.855347,206.958694 336.618256,205.224030 
	C338.902954,207.719025 340.851685,210.416885 342.875916,213.846405 
	C342.634674,216.863586 342.048828,219.148392 342.042603,221.434769 
	C341.976074,245.908386 341.967194,270.382355 342.048035,294.855865 
	C342.057251,297.639221 342.711090,300.420502 343.065979,303.202728 
	C341.242798,305.046387 339.419647,306.890045 337.298279,308.866852 
z"/>
<path fill="#B49960" opacity="1.000000" stroke="none" 
	d="
M343.362305,303.039337 
	C342.711090,300.420502 342.057251,297.639221 342.048035,294.855865 
	C341.967194,270.382355 341.976074,245.908386 342.042603,221.434769 
	C342.048828,219.148392 342.634674,216.863586 343.022888,214.138855 
	C345.963074,215.932327 348.831757,218.164978 351.608521,220.922150 
	C351.011139,224.005386 350.178986,226.550079 350.068298,229.125763 
	C349.841003,234.416138 349.912933,239.724808 350.016113,245.022934 
	C350.344269,261.873444 350.743317,278.722595 351.114990,295.572266 
	C348.629547,298.006836 346.144104,300.441406 343.362305,303.039337 
z"/>
<path fill="#AD8F58" opacity="1.000000" stroke="none" 
	d="
M347.285889,42.648975 
	C350.328003,40.115673 353.096649,37.105938 356.478577,35.164593 
	C361.148743,32.483753 364.183228,34.352642 364.593658,39.759945 
	C364.766266,42.034286 364.425201,44.424290 363.898071,46.662914 
	C359.757355,64.247849 355.514801,81.808823 350.765717,99.589653 
	C349.819336,98.137581 349.065979,96.475067 349.056152,94.808182 
	C348.965179,79.358261 349.062561,63.907051 348.926453,48.457794 
	C348.909363,46.516853 347.858032,44.585026 347.285889,42.648975 
z"/>
<path fill="#AD8F58" opacity="1.000000" stroke="none" 
	d="
M223.961090,415.904388 
	C220.959534,418.115997 218.131195,420.635284 214.906570,422.450653 
	C211.828308,424.183594 208.691284,422.162628 208.348450,418.164795 
	C208.098618,415.251648 208.449066,412.179749 209.113007,409.313232 
	C212.944763,392.770111 216.949356,376.267059 221.416016,359.500916 
	C222.290863,360.943695 222.943130,362.634308 222.952576,364.328583 
	C223.033997,378.912231 222.952682,393.496796 223.042709,408.080353 
	C223.058823,410.690155 223.640518,413.296478 223.961090,415.904388 
z"/>
<path fill="#BCA469" opacity="1.000000" stroke="none" 
	d="
M232.485962,311.192566 
	C233.461166,312.620758 234.893219,314.345367 234.902191,316.077362 
	C235.043304,343.312622 234.987732,370.548889 235.029663,397.784821 
	C235.032654,399.731110 235.441452,401.676727 236.008408,403.905640 
	C234.657257,405.843323 232.959259,407.498047 230.562424,408.957825 
	C229.576553,406.841156 229.045563,404.920166 229.039932,402.997620 
	C228.979630,382.390259 229.056000,361.782288 228.906281,341.175842 
	C228.893524,339.418671 227.526459,337.671326 226.788513,335.919434 
	C228.619247,327.777100 230.449997,319.634796 232.485962,311.192566 
z"/>
<path fill="#B49960" opacity="1.000000" stroke="none" 
	d="
M347.022095,42.800087 
	C347.858032,44.585026 348.909363,46.516853 348.926453,48.457794 
	C349.062561,63.907051 348.965179,79.358261 349.056152,94.808182 
	C349.065979,96.475067 349.819336,98.137581 350.620483,99.901947 
	C348.888947,109.497185 346.764740,118.992592 344.421509,128.780975 
	C343.468781,127.315636 342.107300,125.561241 342.096344,123.798431 
	C341.953094,100.824570 342.013397,77.849503 341.977631,54.874805 
	C341.974854,53.077736 341.637177,51.281197 341.136902,49.193329 
	C342.798584,46.918568 344.778442,44.934883 347.022095,42.800087 
z"/>
<path fill="#AD8F58" opacity="1.000000" stroke="none" 
	d="
M351.430786,295.410645 
	C350.743317,278.722595 350.344269,261.873444 350.016113,245.022934 
	C349.912933,239.724808 349.841003,234.416138 350.068298,229.125763 
	C350.178986,226.550079 351.011139,224.005386 351.811188,221.187927 
	C354.294647,222.088669 356.483582,223.248138 358.874512,224.674988 
	C358.720917,226.821121 358.063568,228.698700 358.056366,230.578781 
	C357.983063,249.772797 358.015411,268.967194 358.021667,288.638580 
	C355.932312,291.160126 353.839447,293.204559 351.430786,295.410645 
z"/>
<path fill="#AD8F58" opacity="1.000000" stroke="none" 
	d="
M214.007584,232.414093 
	C214.202896,230.603958 214.931152,229.065964 214.938202,227.524673 
	C215.018723,209.903870 215.019913,192.282394 214.934601,174.661636 
	C214.927368,173.167511 214.146408,171.677124 213.330872,170.077148 
	C215.705704,167.274277 218.474533,164.579269 221.591095,162.170212 
	C221.985657,168.451874 221.966705,174.448990 222.096970,180.442871 
	C222.240952,187.067612 222.622360,193.687958 222.715942,200.312820 
	C222.820786,207.735672 222.949081,215.171585 222.622147,222.582184 
	C222.421280,227.135117 221.386459,231.651245 220.726105,236.183899 
	C218.552582,235.017487 216.379059,233.851074 214.007584,232.414093 
z"/>
<path fill="#BCA469" opacity="1.000000" stroke="none" 
	d="
M232.667511,151.053467 
	C233.307480,152.844620 233.953140,154.772537 233.957626,156.701950 
	C234.022934,184.752731 234.023865,212.803787 233.948212,240.854507 
	C233.943741,242.510101 233.157486,244.163605 232.338272,245.919754 
	C230.694275,244.641754 229.447021,243.262070 228.080276,241.153259 
	C227.953217,212.215454 227.945663,184.006790 227.938110,155.798126 
	C229.417084,154.262405 230.896042,152.726669 232.667511,151.053467 
z"/>
<path fill="#B49960" opacity="1.000000" stroke="none" 
	d="
M227.643951,155.960541 
	C227.945663,184.006790 227.953217,212.215454 227.933121,240.875351 
	C225.654053,239.787506 223.402649,238.248413 220.938660,236.446625 
	C221.386459,231.651245 222.421280,227.135117 222.622147,222.582184 
	C222.949081,215.171585 222.820786,207.735672 222.715942,200.312820 
	C222.622360,193.687958 222.240952,187.067612 222.096970,180.442871 
	C221.966705,174.448990 221.985657,168.451874 221.899750,162.015350 
	C223.690384,159.757339 225.520096,157.940155 227.643951,155.960541 
z"/>
<path fill="#B49960" opacity="1.000000" stroke="none" 
	d="
M226.570496,336.215912 
	C227.526459,337.671326 228.893524,339.418671 228.906281,341.175842 
	C229.056000,361.782288 228.979630,382.390259 229.039932,402.997620 
	C229.045563,404.920166 229.576553,406.841156 230.247940,409.036194 
	C228.613663,411.426300 226.595047,413.543121 224.268768,415.782166 
	C223.640518,413.296478 223.058823,410.690155 223.042709,408.080353 
	C222.952682,393.496796 223.033997,378.912231 222.952576,364.328583 
	C222.943130,362.634308 222.290863,360.943695 221.562012,359.138245 
	C222.909119,351.520844 224.630798,344.016632 226.570496,336.215912 
z"/>
</svg>