<?xml version="1.0" encoding="UTF-8"?>
<svg version="1.1" xmlns="http://www.w3.org/2000/svg" width="1358" height="987">
<path d="M0 0 C11.70414109 48.75396676 21.66790429 113.51876524 -5.87541199 158.59378052 C-23.2647019 185.81692145 -46.4744886 209.12918074 -69.2734375 231.796875 C-70.14027401 232.66024672 -71.00711051 233.52361844 -71.90021479 234.41315293 C-94.41920668 256.80837739 -117.6174515 278.43926125 -141.07304788 299.84606981 C-154.69014359 312.28676634 -168.10796546 324.91829623 -181.41210938 337.69287109 C-182.35785617 338.60086562 -183.30360296 339.50886014 -184.27800874 340.44436964 C-189.02500368 345.00374661 -193.76901538 349.56621404 -198.51171374 354.13005972 C-227.20848766 381.73706411 -256.10249181 409.12239182 -285.37025642 436.12379861 C-287.65915065 438.23593003 -289.94647331 440.34975269 -292.23358345 442.46381569 C-295.74657085 445.70944048 -299.26503433 448.94900725 -302.7887096 452.18302479 C-304.06738508 453.35742726 -305.34469519 454.53331828 -306.62055413 455.71077999 C-308.34365248 457.29969455 -310.07243748 458.88214449 -311.80319786 460.4627037 C-312.76540918 461.34544771 -313.72762049 462.22819171 -314.71898973 463.13768554 C-317 465 -317 465 -319 465 C-320.72943883 463.37537564 -322.35919913 461.71196814 -324 460 C-325.49728015 458.49728507 -326.99750209 456.99749792 -328.5 455.5 C-330.76817402 453.23182598 -333.03630001 450.96362179 -335.30203247 448.69300842 C-338.00624003 445.99377144 -340.72509792 443.31024429 -343.44873047 440.63061523 C-348.70766791 435.45301602 -353.95415747 430.26299634 -359.1934948 425.06556606 C-362.35785366 421.92742284 -365.52677597 418.7941751 -368.70605469 415.67114258 C-371.78958857 412.64179354 -374.86087128 409.60051492 -377.92392349 406.55046272 C-379.09261289 405.39102228 -380.26569923 404.23599678 -381.44317245 403.08547783 C-383.0830882 401.48168145 -384.70685986 399.8630931 -386.32763672 398.23999023 C-387.25631561 397.3224144 -388.18499451 396.40483856 -389.14181519 395.4594574 C-391 393 -391 393 -390.93495238 391.18799663 C-389.58206732 388.02194453 -387.31502734 385.90989314 -384.89894676 383.53259659 C-384.35961051 382.9900984 -383.82027427 382.44760022 -383.2645945 381.8886627 C-381.44293417 380.06002597 -379.6107084 378.24235212 -377.77841187 376.42437744 C-376.46195889 375.1073327 -375.14616635 373.78962753 -373.8309809 372.47131705 C-370.20497029 368.84052328 -366.5696445 365.21918147 -362.93279099 361.59925318 C-359.01583132 357.69726595 -355.10751699 353.78663687 -351.19818115 349.87701416 C-344.41879138 343.09946477 -337.6339749 336.32738721 -330.84553146 329.55890656 C-321.02238464 319.76454215 -311.20798565 309.96145013 -301.3958108 300.15609524 C-285.46630536 284.238044 -269.53049233 268.32632522 -253.59033203 252.41894531 C-249.72670691 248.56325081 -245.86308882 244.70754926 -241.99951172 240.85180664 C-241.52031589 240.37358272 -241.04112005 239.89535879 -240.54740314 239.40264324 C-229.42691516 228.30459656 -218.30904506 217.20392881 -207.19189453 206.10253906 C-206.47791715 205.38957814 -206.47791715 205.38957814 -205.74951598 204.66221397 C-194.87843749 193.80658459 -184.00811057 182.95020308 -173.13871193 172.09289169 C-172.22531481 171.18051296 -171.31191769 170.26813422 -170.37084187 169.32810764 C-166.71909439 165.6804123 -163.06735481 162.03270907 -159.4157054 158.38491556 C-148.72508605 147.70561912 -138.03228256 137.02852074 -127.3355207 126.35537669 C-120.62239498 119.65696774 -113.91089473 112.95693332 -107.20066325 106.25562504 C-103.32879688 102.38907432 -99.45607067 98.52339444 -95.58111191 94.65994263 C-92.03199173 91.12135621 -88.48519479 87.58045818 -84.940201 84.03773805 C-83.65903895 82.75823258 -82.37702007 81.47958433 -81.09404747 80.20189431 C-72.48640637 71.64284382 -72.48640637 71.64284382 -64.38184208 62.61013198 C-61.94212501 59.76735671 -59.28616672 57.13868871 -56.63745117 54.4921875 C-56.04467377 53.89605148 -55.45189636 53.29991547 -54.84115601 52.68571472 C-52.91102484 50.74620086 -50.97725558 48.81036881 -49.04296875 46.875 C-47.69005718 45.51887107 -46.33721923 44.16266869 -44.98445129 42.80639648 C-42.16466083 39.98064959 -39.34284311 37.15694521 -36.51977539 34.33447266 C-32.89525539 30.71005502 -29.27770659 27.07876251 -25.66181469 23.44573975 C-22.87807343 20.65091872 -20.08983849 17.86061516 -17.30028725 15.07159424 C-15.96337725 13.73350157 -14.62809452 12.39378106 -13.29445457 11.0524292 C-11.43951115 9.18775119 -9.578416 7.32944091 -7.71557617 5.47265625 C-6.8872654 4.63591621 -6.8872654 4.63591621 -6.04222107 3.78227234 C-2.22832698 0 -2.22832698 0 0 0 Z " fill="#69E1FB" transform="translate(1135,120)"/>
<path d="M0 0 C12.00004878 -0.0299884 23.99994232 -0.02133322 36 0 C37.0605938 0.00164658 38.12118759 0.00329315 39.21392059 0.00498962 C53.70572697 0.02957612 68.1960258 0.10558139 82.68702507 0.26418686 C89.13147792 0.33345935 95.57493123 0.38308932 102.01977539 0.39111328 C108.36454508 0.39967332 114.70721249 0.45639511 121.05132484 0.54686356 C123.44130534 0.57268472 125.83153724 0.5814747 128.22163963 0.57230759 C131.54227582 0.56249573 134.85665043 0.61458178 138.17651367 0.68115234 C139.14423203 0.66390106 140.11195038 0.64664978 141.10899353 0.62887573 C145.21556281 0.76667824 147.94148633 1.11819243 151.15378571 3.79423714 C152.63836233 5.46174749 154.07502398 7.17252425 155.47505283 8.91162682 C158.36654871 12.44834174 161.48993775 15.62906042 164.72976685 18.84329224 C165.35054062 19.46408578 165.9713144 20.08487933 166.61089951 20.7244848 C168.63148838 22.74479029 170.65582401 24.76129756 172.68017578 26.77783203 C174.14818306 28.24391669 175.61596029 29.71023175 177.08352661 31.17675781 C180.22658262 34.31666964 183.37118113 37.45502528 186.51700211 40.5921669 C191.49595125 45.55751956 196.47101765 50.52675055 201.44552612 55.49655151 C212.00238318 66.04234128 222.56347224 76.58388822 233.125 87.125 C244.53627709 98.514229 255.94681215 109.90419562 267.35247028 121.29905212 C272.29325625 126.23486965 277.23646678 131.16824191 282.18157601 136.09972787 C285.26018641 139.17085779 288.3367046 142.24407711 291.41267014 145.31785583 C292.83434955 146.73766985 294.25688984 148.15662248 295.68037415 149.57462692 C308.70552958 162.55123292 308.70552958 162.55123292 313.74453354 168.5181303 C315.53825955 170.63532603 317.47654945 172.58924326 319.4453125 174.54296875 C320.21230469 175.30673828 320.97929687 176.07050781 321.76953125 176.85742188 C322.54683594 177.62634766 323.32414062 178.39527344 324.125 179.1875 C324.91003906 179.96802734 325.69507813 180.74855469 326.50390625 181.55273438 C327.96513162 183.00533531 329.42739326 184.45689526 330.89111328 185.90698242 C335.10642508 190.09057447 339.29684426 194.29909705 343.48950195 198.50537109 C348.8273102 203.85953192 354.16767209 209.21113806 359.50948811 214.56130028 C362.73186073 217.78888991 365.95329108 221.01740856 369.17260742 224.24804688 C372.30140297 227.38776981 375.43269107 230.52498748 378.56566429 233.66054153 C379.75173925 234.8484501 380.93694065 236.0372316 382.1212101 237.22694016 C383.7858795 238.89895375 385.45373947 240.56772495 387.12231445 242.23583984 C387.83882423 242.95774254 387.83882423 242.95774254 388.56980896 243.69422913 C391.26937376 246.38583981 394.04926077 248.93947887 396.93093872 251.43589783 C400.75659476 254.75382987 404.38979355 258.22286577 407.98266602 261.78979492 C408.62917618 262.42812759 409.27568634 263.06646027 409.94178772 263.72413635 C412.04878932 265.8066139 414.15188453 267.89296523 416.25390625 269.98046875 C416.97596693 270.69720575 417.69802761 271.41394276 418.44196892 272.15239906 C422.25006732 275.93393297 426.05459709 279.71901986 429.85668945 283.5065918 C433.00312304 286.63960042 436.15670133 289.76514597 439.31665039 292.88452148 C443.14293591 296.66169913 446.95699718 300.45080904 450.76237297 304.24904823 C452.2130899 305.69303247 453.66807387 307.13274261 455.12732124 308.5681057 C457.15733686 310.56672633 459.17124628 312.58030225 461.18188477 314.59838867 C461.79006042 315.190159 462.39823608 315.78192932 463.02484131 316.39163208 C464.66847229 318.06047058 464.66847229 318.06047058 467 321 C466.54626033 325.17596546 464.37266466 326.77214866 461.25 329.4375 C459.88294922 330.62666016 459.88294922 330.62666016 458.48828125 331.83984375 C457.25658203 332.90912109 457.25658203 332.90912109 456 334 C454.31288577 335.6459651 452.6454378 337.31237149 451 339 C449.50138058 340.50137931 448.00123203 342.00123304 446.5 343.5 C445.7678125 344.2321875 445.035625 344.964375 444.28125 345.71875 C443.5284375 346.4715625 442.775625 347.224375 442 348 C441.31703857 348.68368652 440.63407715 349.36737305 439.93041992 350.07177734 C436.7536772 353.24859287 433.56942614 356.41786409 430.38618469 359.58816528 C426.80327839 363.15773648 423.22297173 366.72991014 419.64282227 370.30224609 C417.7514508 372.18855998 415.85941095 374.07416824 413.96606445 375.95849609 C411.23154093 378.6809273 408.50022662 381.40654223 405.76953125 384.1328125 C404.92058792 384.97659454 404.07164459 385.82037659 403.19697571 386.68972778 C402.41243515 387.47419281 401.62789459 388.25865784 400.81958008 389.06689453 C400.12850662 389.75574738 399.43743317 390.44460022 398.72541809 391.15432739 C396.82320504 393.08860562 396.82320504 393.08860562 395 396 C394.34 396 393.68 396 393 396 C391.54671758 394.52774435 391.54671758 394.52774435 389.86083126 392.49376774 C386.16954111 388.15651421 382.25886695 384.11884925 378.22669983 380.09971619 C377.09913471 378.96981108 377.09913471 378.96981108 375.94879049 377.8170796 C373.44877341 375.31309854 370.94522686 372.81267771 368.44165039 370.31225586 C366.64060613 368.50985552 364.83977445 366.70724274 363.03913879 364.9044342 C358.66715448 360.52837199 354.29284433 356.15464686 349.91736824 351.78207629 C346.35931841 348.22629079 342.80225306 344.66952321 339.24587822 341.11206245 C338.73846996 340.60450097 338.23106171 340.09693948 337.70827745 339.57399734 C336.67728381 338.54268395 335.6462924 337.51136834 334.61530321 336.48005051 C324.96224349 326.82414366 315.30612891 317.17129642 305.64895593 307.5195036 C297.3743411 299.24935611 289.10235152 290.97659038 280.83227539 282.7019043 C271.21349115 273.07776076 261.59307676 263.45525155 251.97007936 253.83532053 C250.94269667 252.80825637 249.91531606 251.78119013 248.88793755 250.75412178 C248.38253187 250.24887038 247.87712619 249.74361897 247.35640519 249.22305692 C243.80599237 245.67350519 240.25673643 242.12279924 236.70793343 238.57163811 C231.92588045 233.78647719 227.14116455 229.00399445 222.35467339 224.22327232 C220.60108286 222.47100115 218.84833738 220.71788382 217.09651184 218.96384811 C214.70008036 216.56467271 212.30057137 214.16861684 209.90028381 211.77330017 C209.2124269 211.08321253 208.52456998 210.39312489 207.81586891 209.68212551 C203.9509837 205.83268516 199.98507424 202.16279184 195.84097445 198.61494511 C192.51037608 195.69326765 189.40949848 192.53991674 186.28637695 189.39990234 C185.56172241 188.67539383 184.83706787 187.95088531 184.0904541 187.204422 C181.72068199 184.83395919 179.35446275 182.45998397 176.98828125 180.0859375 C175.33039432 178.42618244 173.6722842 176.76665029 172.01396179 175.10733032 C167.6654128 170.75497933 163.31987392 166.39963514 158.97497559 162.04364014 C154.55479073 157.61322102 150.1317732 153.18563187 145.70898438 148.7578125 C138.56836383 141.60841946 131.42947703 134.45730077 124.29283142 127.30393982 C123.66645782 126.67612106 123.04008423 126.04830231 122.39472961 125.40145874 C121.50703353 124.50991152 121.50703353 124.50991152 120.60140419 123.60035324 C119.27910772 122.27892455 117.94360175 120.97072823 116.60466003 119.66616821 C114.2780343 117.28459999 112.06593529 114.84602718 109.85377502 112.35888672 C104.87289379 106.79606255 99.63689632 101.51708704 94.33959961 96.2578125 C93.30356832 95.22534784 92.26777837 94.19264096 91.23220825 93.15971375 C89.02382407 90.95781829 86.81393669 88.75744729 84.60285759 86.55825806 C81.10818824 83.08203631 77.61800381 79.60133444 74.1285553 76.11987305 C64.21326065 66.22862183 54.29190267 56.34346503 44.36645508 46.46240234 C38.86811979 40.98857614 33.3733544 35.51119163 27.88242728 30.02993393 C24.41173146 26.56578723 20.9365748 23.10619785 17.45806968 19.64989376 C15.30472087 17.5082331 13.1555247 15.36244357 11.00751114 13.21543312 C10.00786263 12.2179402 9.00648252 11.2221793 8.00329399 10.22824669 C6.63950906 8.87656603 5.28237349 7.51818607 3.92564392 6.15942383 C3.16302718 5.39994949 2.40041044 4.64047516 1.6146841 3.85798645 C0 2 0 2 0 0 Z " fill="#1617F5" transform="translate(47,64)"/>
<path d="M0 0 C2.77811871 1.27017734 4.82705711 2.57696348 6.98466134 4.73396301 C7.83239391 5.57418503 7.83239391 5.57418503 8.69725239 6.43138123 C9.30923037 7.04804153 9.92120835 7.66470184 10.55173111 8.30004883 C11.21143548 8.95684631 11.87113984 9.6136438 12.55083525 10.29034424 C14.77566957 12.5078391 16.99326531 14.73243613 19.21099854 16.95703125 C20.81444934 18.5581792 22.41833612 20.15889064 24.02262282 21.75920105 C28.44192215 26.17011992 32.85492353 30.58729374 37.2669425 35.00549316 C41.53346089 39.27605888 45.80465338 43.54194133 50.07571054 47.80796647 C59.35233419 57.07404768 68.62321574 66.34585722 77.89168269 75.62009645 C86.00131122 83.73475092 94.11278971 91.84755039 102.22612762 99.95849609 C102.76375522 100.49597092 103.30138281 101.03344574 103.85530215 101.58720767 C106.03754384 103.76882672 108.2197926 105.95043869 110.40205301 108.13203901 C130.88192511 128.60579014 151.35595487 149.08537482 171.82738588 169.56756568 C190.02943955 187.77911359 208.23666045 205.98548028 226.44824219 224.1875 C246.89534813 244.62390612 267.33923109 265.06352746 287.77789474 285.50837708 C289.95496859 287.6860924 292.13205034 289.86379982 294.30913544 292.04150391 C294.84521182 292.57773845 295.38128821 293.11397299 295.93360933 293.66645706 C304.04244259 301.7775689 312.15374779 309.88620321 320.26624298 317.99365234 C329.48542203 327.20712564 338.7010454 336.42413867 347.91193178 345.64590263 C352.61611357 350.35545587 357.32201503 355.06326723 362.03217316 359.7668457 C366.33669342 364.06544356 370.63663686 368.36856314 374.9328427 372.67547035 C376.49489235 374.23976986 378.05866279 375.80235314 379.62424305 377.36311913 C381.7379839 379.4708537 383.8455822 381.58453743 385.95163345 383.69995117 C386.57297609 384.31661148 387.19431874 384.93327179 387.83448994 385.56861877 C392 389.77169922 392 389.77169922 392 392 C372.95465553 392.18697683 353.90949758 392.32800136 334.86342525 392.41449738 C326.01972184 392.45572875 317.17658906 392.51192908 308.33325195 392.60351562 C300.62431868 392.68331551 292.9157987 392.73488017 285.20646387 392.75270796 C281.12509241 392.76312782 277.04490313 392.78756928 272.96391106 392.84584045 C269.11975736 392.9002834 265.27726858 392.91686585 261.43276596 392.90486145 C260.02462642 392.90705625 258.61642929 392.92289108 257.20862389 392.9536438 C246.64754633 393.17296204 246.64754633 393.17296204 242.92578506 390.52327347 C241.11869637 388.44351033 239.58905563 386.24998137 238 384 C236.44526128 382.34284569 234.85689699 380.71686196 233.24362183 379.11663818 C232.36615295 378.23634949 231.48868408 377.35606079 230.58462524 376.44909668 C229.63573175 375.50214656 228.68678594 374.55524886 227.73779297 373.60839844 C226.72004934 372.58929686 225.70251793 371.56998331 224.68518066 370.55047607 C221.94386824 367.80463796 219.19944232 365.06193232 216.45427465 362.31994915 C213.57235136 359.44057267 210.69288573 356.55874005 207.8130188 353.67730713 C202.98147095 348.84394521 198.14783013 344.01268394 193.31298828 339.18261719 C187.73007926 333.60515857 182.15079414 328.0240943 176.57335937 322.44116187 C171.77247531 317.63573596 166.96964049 312.8322663 162.16517746 308.03041863 C159.30077268 305.16756952 156.43703995 302.30405693 153.57506943 299.43877411 C150.88671658 296.74752665 148.19591778 294.05874866 145.50323486 291.3718338 C144.51757448 290.38749209 143.53275743 289.40230506 142.54886246 288.41619873 C141.20236553 287.06695537 139.85246325 285.72111303 138.50241089 284.37542725 C137.74917982 283.6225732 136.99594875 282.86971916 136.2198925 282.09405136 C133.91176707 279.91676881 131.4884801 277.96651816 129 276 C125.42225047 272.55725989 122.08037324 268.93093884 118.75 265.25 C112.99491235 258.93661925 107.19062137 252.70563811 100.66943359 247.17163086 C94.46822211 241.75327188 88.73278542 235.85613136 82.92578125 230.0234375 C81.67145952 228.76724621 80.41691351 227.51127884 79.16215515 226.25552368 C75.87890809 222.96848337 72.59867363 219.67845304 69.3190918 216.38775635 C65.98472745 213.04314834 62.64752287 209.70137697 59.31054688 206.359375 C53.92196153 200.96203449 48.53506799 195.56301269 43.15052795 190.16163635 C40.10313312 187.10496841 37.05264361 184.0514256 34 181 C-20 127 -20 127 -22.53421021 124.46083069 C-24.9774316 122.02252301 -27.43482918 119.59959207 -29.89794922 117.18139648 C-34.55812083 112.6024569 -39.2059351 108.01119474 -43.84658623 103.41247463 C-46.64775517 100.63752894 -49.45347271 97.8675067 -52.26953125 95.10766602 C-55.00294497 92.42844887 -57.72407575 89.73731201 -60.43701553 87.03737068 C-61.47173414 86.01189701 -62.51084675 84.99083759 -63.55434799 83.97430229 C-65.00717418 82.55760541 -66.44324975 81.12379121 -67.87841797 79.68920898 C-68.70050751 78.8782225 -69.52259705 78.06723602 -70.36959839 77.23167419 C-72 75 -72 75 -71.77788067 73.05904865 C-70.90001712 70.73534551 -69.93974314 69.56969159 -68.18431091 67.82354736 C-67.58553131 67.22064377 -66.98675171 66.61774017 -66.36982727 65.99656677 C-65.70952011 65.34704544 -65.04921295 64.69752411 -64.36889648 64.02832031 C-63.32992218 62.98868889 -63.32992218 62.98868889 -62.2699585 61.92805481 C-59.97737572 59.63756304 -57.67434758 57.35788185 -55.37109375 55.078125 C-53.78003289 53.49265896 -52.18963283 51.90652953 -50.59986877 50.31976318 C-46.41264357 46.14399564 -42.21648749 41.97731512 -38.01843262 37.81243896 C-33.7366947 33.5613818 -29.46343035 29.30182586 -25.18945312 25.04296875 C-16.80125827 16.68695435 -8.40360769 8.3405116 0 0 Z " fill="#6EECFB" transform="translate(941,563)"/>
<path d="M0 0 C3.14748245 1.39533169 5.27703936 3.0273038 7.70543385 5.45654488 C8.43014403 6.17665627 9.15485422 6.89676766 9.90152532 7.6387006 C10.69052541 8.43284426 11.47952551 9.22698792 12.29243469 10.04519653 C13.13620877 10.8865562 13.97998285 11.72791586 14.84932584 12.59477127 C17.19055629 14.93133656 19.52721117 17.27231379 21.86204803 19.61525774 C24.38137095 22.14115599 26.90644998 24.66128843 29.43081665 27.18214417 C34.37648284 32.12276583 39.31678596 37.06871714 44.25530449 42.01648231 C50.00916713 47.78073006 55.7682544 53.53974595 61.52755465 59.29855989 C71.80821366 69.57871806 82.08403167 79.86370169 92.35717773 90.15136719 C102.31840527 100.12666597 112.28311147 110.0984724 122.25170898 120.06640625 C122.86500835 120.67966566 123.47830772 121.29292507 124.11019192 121.92476811 C125.02856998 122.84308563 125.02856998 122.84308563 125.96550113 123.77995503 C137.31878256 135.13254552 148.66876581 146.48842837 160.01722855 157.84583566 C164.02626744 161.85788511 168.0362769 165.86896291 172.04659462 169.87973404 C176.94000878 174.77383232 181.83151423 179.66982955 186.72068993 184.56816216 C189.21345777 187.0655293 191.70698346 189.56212613 194.2026844 192.05656242 C196.91338758 194.76595867 199.62018021 197.47924067 202.32661438 200.19290161 C203.50007627 201.3640406 203.50007627 201.3640406 204.69724447 202.55883896 C208.78412007 206.66370406 212.71325284 210.85070883 216.4890973 215.24414909 C218.81169056 217.94328218 221.21635498 220.5652978 223.625 223.1875 C224.30175781 223.9290332 224.30175781 223.9290332 224.9921875 224.68554688 C227.91703181 227.87514002 230.93412184 230.94660203 234 234 C235.20337555 235.2028744 236.40647857 236.40602147 237.609375 237.609375 C238.27356445 238.27356445 238.93775391 238.93775391 239.62207031 239.62207031 C346 346 346 346 348.13354492 348.13574219 C351.2552441 351.25751423 354.3844531 354.3717406 357.51264954 357.48699951 C361.02347253 360.98450928 364.5317131 364.48460431 368.03979492 367.98486328 C369.89633405 369.83633481 371.75376398 371.6869135 373.61206055 373.53662109 C376.29187597 376.2043855 378.96851839 378.87529699 381.64453125 381.546875 C382.48192337 382.37910583 383.31931549 383.21133667 384.18208313 384.06878662 C384.946754 384.83338196 385.71142487 385.59797729 386.49926758 386.38574219 C387.17701736 387.06127136 387.85476715 387.73680054 388.55305481 388.43280029 C390 390 390 390 390 391 C371.6322788 391.73028654 353.26840863 392.273669 334.88922024 392.60617733 C326.35090628 392.76481772 317.82178549 392.98098151 309.28930664 393.33862305 C247.19554773 395.89096587 247.19554773 395.89096587 231.38759327 382.19401264 C225.61176906 376.64006084 220.80656756 370.39509781 216.57264709 363.6096344 C214.82003645 360.95483206 213.00370434 359.01382267 210.55937958 356.98494911 C204.92570462 352.14680368 199.72560874 346.87750829 194.47727966 341.63117981 C193.32316994 340.48109204 192.16885183 339.33121335 191.01434475 338.18152446 C187.85860509 335.03767168 184.70595847 331.89073349 181.55386484 328.74322569 C178.1480781 325.34342409 174.73948775 321.94643508 171.3313446 318.54899597 C163.11602465 310.35811675 154.9055789 302.16236039 146.69600806 293.96571949 C144.37785653 291.65128319 142.05957633 289.33697586 139.74125028 287.02271438 C125.34186069 272.64854266 110.94405457 258.27278697 96.5510397 243.89223194 C93.22309213 240.56721394 89.8951285 237.24221202 86.56713867 233.91723633 C85.74000947 233.09085317 84.91288026 232.26447002 84.06068654 231.41304495 C70.63131105 217.9963507 57.19167541 204.5899824 43.74785971 191.1877592 C29.94650352 177.42875315 16.15452491 163.66040333 2.37171036 149.88282317 C-5.36783693 142.14669565 -13.11153457 134.41482175 -20.8657856 126.69342995 C-27.46146139 120.1256593 -34.04869047 113.54956645 -40.62480891 106.96221117 C-43.9824092 103.59940174 -47.34401138 100.24085537 -50.71650696 96.89297867 C-53.79922125 93.83258234 -56.87033669 90.7610386 -59.93234872 87.67993303 C-61.04614518 86.5633121 -62.16424701 85.45096705 -63.2868721 84.3432226 C-64.80424566 82.84475157 -66.30562272 81.33192802 -67.8037653 79.81426716 C-69.06457703 78.55549022 -69.06457703 78.55549022 -70.3508597 77.27128345 C-72 75 -72 75 -71.83925724 72.79917234 C-70.87095193 70.72335094 -69.80873521 69.43937682 -68.18431091 67.82354736 C-67.58553131 67.22064377 -66.98675171 66.61774017 -66.36982727 65.99656677 C-65.70952011 65.34704544 -65.04921295 64.69752411 -64.36889648 64.02832031 C-63.32992218 62.98868889 -63.32992218 62.98868889 -62.2699585 61.92805481 C-59.97737572 59.63756304 -57.67434758 57.35788185 -55.37109375 55.078125 C-53.78003289 53.49265896 -52.18963283 51.90652953 -50.59986877 50.31976318 C-46.41264357 46.14399564 -42.21648749 41.97731512 -38.01843262 37.81243896 C-33.7366947 33.5613818 -29.46343035 29.30182586 -25.18945312 25.04296875 C-16.80125827 16.68695435 -8.40360769 8.3405116 0 0 Z " fill="#5CC6FA" transform="translate(691,563)"/>
<path d="M0 0 C3.53948065 1.51069906 5.82412473 3.57086006 8.53735352 6.27856445 C9.42830215 7.16320877 10.31925079 8.04785309 11.23719788 8.95930481 C12.20135561 9.92704303 13.16525206 10.89504162 14.12890625 11.86328125 C15.12462146 12.85764831 16.12063333 13.85171839 17.1169281 14.84550476 C19.20223337 16.92786449 21.2838866 19.01379042 23.36303711 21.10229492 C26.0215259 23.77216301 28.68887255 26.43297141 31.35904026 29.09115314 C33.41734443 31.14221067 35.47083703 33.19803237 37.52293205 35.25530052 C38.504215 36.23791298 39.48697296 37.2190548 40.47125435 38.19866371 C41.84970448 39.57200432 43.22101976 40.95249495 44.59204102 42.33325195 C45.37273453 43.11553665 46.15342804 43.89782135 46.95777893 44.70381165 C49.00539919 47.00607063 50.45787793 49.34294669 52 52 C53.76792637 53.55511207 53.76792637 53.55511207 55.75 54.8125 C59.57654687 57.52969934 62.40575308 60.5822108 65.39453125 64.1796875 C67.08390854 66.20702105 67.08390854 66.20702105 69.875 68.25 C72 70 72 70 72.91430664 71.79956055 C73 74 73 74 71.18920898 76.36254883 C70.30048096 77.21872803 69.41175293 78.07490723 68.49609375 78.95703125 C67.78284691 79.65610847 67.78284691 79.65610847 67.05519104 80.36930847 C65.52729444 81.86257693 63.98337224 83.33786833 62.4375 84.8125 C60.43162363 86.75182313 58.43226271 88.69778439 56.43359375 90.64453125 C55.9517865 91.111474 55.46997925 91.57841675 54.97357178 92.05950928 C51.4071611 95.53731156 48.17023129 99.1623516 45 103 C43.33333333 104.66666667 41.66666667 106.33333333 40 108 C39.401875 108.78375 38.80375 109.5675 38.1875 110.375 C36.32389923 112.61132093 34.56231178 114.30000629 32.35888672 116.17016602 C28.06071945 119.89432655 24.05612226 123.84893602 20.0703125 127.90234375 C18.60169035 129.38359031 17.13293668 130.86470648 15.6640625 132.34570312 C13.37766588 134.65708093 11.09291719 136.97004646 8.81054688 139.28540039 C6.58893953 141.53702307 4.36130595 143.78253932 2.1328125 146.02734375 C1.44639679 146.72721909 0.75998108 147.42709442 0.05276489 148.1481781 C-0.89930344 149.10531456 -0.89930344 149.10531456 -1.87060547 150.08178711 C-2.42827606 150.64691513 -2.98594666 151.21204315 -3.56051636 151.79429626 C-5 153 -5 153 -7 153 C-7.26258763 153.58776592 -7.52517527 154.17553185 -7.7957201 154.78110886 C-9.06121832 157.11279502 -10.39187669 158.63571317 -12.26847839 160.5022583 C-12.94265808 161.17774216 -13.61683777 161.85322601 -14.31144714 162.54917908 C-15.0506691 163.27963943 -15.78989105 164.01009979 -16.55151367 164.76269531 C-17.33060089 165.54046829 -18.10968811 166.31824127 -18.91238403 167.11958313 C-21.49301842 169.69371906 -24.08055182 172.26080827 -26.66796875 174.828125 C-28.46488905 176.61877325 -30.26129407 178.40993873 -32.0572052 180.20159912 C-36.30939252 184.44183026 -40.56563947 188.67793994 -44.82423526 192.91173148 C-52.88450566 200.92511461 -60.93784729 208.94543701 -68.98699379 216.96999359 C-71.62509576 219.59791742 -74.26661217 222.22237248 -76.90849304 224.84649658 C-78.5396183 226.4707877 -80.17063103 228.09519184 -81.80151367 229.71972656 C-82.53061447 230.44209 -83.25971527 231.16445343 -84.01091003 231.90870667 C-84.69918884 232.59546982 -85.38746765 233.28223297 -86.09660339 233.98980713 C-86.68487506 234.57455936 -87.27314672 235.1593116 -87.8792448 235.7617836 C-89.70890604 237.69278337 -91.4443046 239.6640846 -93.1792593 241.6792593 C-97.26507758 246.37179599 -101.62562264 250.7554369 -106.0352478 255.14204407 C-107.36623188 256.47219308 -107.36623188 256.47219308 -108.72410452 257.8292138 C-111.1668605 260.27033689 -113.61270613 262.70834306 -116.05908608 265.14583361 C-118.70435875 267.78262892 -121.34667379 270.42238508 -123.98931885 273.06181335 C-128.56199398 277.62820855 -133.13638858 282.19287523 -137.71186447 286.756464 C-144.3292259 293.3568135 -150.94284401 299.96090409 -157.55537339 306.56609418 C-168.28812404 317.28691625 -179.02238107 328.00622841 -189.75830078 338.72387695 C-190.40005275 339.3645388 -191.04180472 340.00520065 -191.70300372 340.66527649 C-200.82539196 349.77202942 -209.94926088 358.87729747 -219.07371028 367.98198517 C-219.71728139 368.62416298 -220.36085251 369.26634078 -221.02392578 369.92797852 C-221.66671236 370.56937156 -222.30949894 371.21076461 -222.97176389 371.87159381 C-233.67795224 382.55477179 -244.38029894 393.2417887 -255.07948554 403.93197888 C-261.67815765 410.52479175 -268.28007665 417.11432015 -274.8861732 423.69969376 C-279.40604147 428.20588489 -283.92232566 432.71564692 -288.43576591 437.22827635 C-291.04193588 439.83374041 -293.64974535 442.43750882 -296.2619133 445.0369606 C-299.08887565 447.85023248 -301.90813879 450.67113805 -304.72665405 453.49287415 C-305.55941121 454.3191235 -306.39216836 455.14537284 -307.25016057 455.99666005 C-308.00024818 456.75011305 -308.75033578 457.50356605 -309.52315331 458.27985096 C-310.17513581 458.93053195 -310.82711831 459.58121294 -311.49885786 460.25161153 C-313.22187687 462.03551937 -313.22187687 462.03551937 -314 465 C-314.99 465 -315.98 465 -317 465 C-326.70891743 413.50932031 -337.5004648 345.40584103 -306.42510986 299.42010498 C-293.17675117 280.35888126 -277.03805716 263.57764349 -260.59765625 247.27734375 C-259.89194801 246.57606277 -259.18623978 245.87478179 -258.45914644 245.15224987 C-240.21640978 227.05606449 -221.31654957 209.72236418 -202.1479553 192.61658537 C-191.03315748 182.68544547 -180.11510354 172.5670286 -169.30493164 162.30541992 C-168.14981246 161.20907937 -168.14981246 161.20907937 -166.97135753 160.09059053 C-163.1055682 156.4195836 -159.24286402 152.74534969 -155.38175976 149.06941593 C-147.8987798 141.9468194 -140.39629151 134.84488179 -132.88414001 127.75306702 C-132.15993049 127.06936561 -131.43572097 126.38566419 -130.68956571 125.68124456 C-113.09533179 109.08446108 -95.22745923 92.7889014 -77.26926554 76.58744216 C-75.54897701 75.03542124 -73.82949525 73.48251066 -72.1101169 71.92948157 C-70.03751422 70.05752559 -67.96104215 68.19001274 -65.88174492 66.32549804 C-64.98103781 65.51345462 -64.08033071 64.7014112 -63.15232944 63.8647604 C-62.3689664 63.16146176 -61.58560336 62.45816312 -60.77850205 61.7335524 C-58.91824265 60.11010428 -58.91824265 60.11010428 -58 58 C-57.34 58 -56.68 58 -56 58 C-55.74025391 57.41573242 -55.48050781 56.83146484 -55.21289062 56.22949219 C-53.915344 53.84438836 -52.50658878 52.24809363 -50.59375 50.328125 C-49.93246094 49.66425781 -49.27117187 49.00039063 -48.58984375 48.31640625 C-47.55537109 47.29353516 -47.55537109 47.29353516 -46.5 46.25 C-45.46552734 45.20392578 -45.46552734 45.20392578 -44.41015625 44.13671875 C-43.74886719 43.47800781 -43.08757812 42.81929688 -42.40625 42.140625 C-41.80103516 41.53766602 -41.19582031 40.93470703 -40.57226562 40.31347656 C-39 39 -39 39 -37 39 C-36.74094879 38.41563171 -36.48189758 37.83126343 -36.21499634 37.22918701 C-34.90766642 34.83059305 -33.49556464 33.25458935 -31.56005859 31.33300781 C-30.85948334 30.63258362 -30.15890808 29.93215942 -29.43710327 29.21051025 C-28.68184357 28.46557312 -27.92658386 27.72063599 -27.1484375 26.953125 C-26.37440582 26.18192322 -25.60037415 25.41072144 -24.80288696 24.6161499 C-22.33158077 22.15603144 -19.85340817 19.70296152 -17.375 17.25 C-15.69745948 15.58249106 -14.02037055 13.91452768 -12.34375 12.24609375 C-8.23439081 8.1587763 -4.11937353 4.07722304 0 0 Z " fill="#1F38F5" transform="translate(565,438)"/>
<path d="M0 0 C19.04534447 -0.18697683 38.09050242 -0.32800136 57.13657475 -0.41449738 C65.98027816 -0.45572875 74.82341094 -0.51192908 83.66674805 -0.60351562 C91.37568132 -0.68331551 99.0842013 -0.73488017 106.79353613 -0.75270796 C110.87490759 -0.76312782 114.95509687 -0.78756928 119.03608894 -0.84584045 C122.88024264 -0.9002834 126.72273142 -0.91686585 130.56723404 -0.90486145 C131.97537358 -0.90705625 133.38357071 -0.92289108 134.79137611 -0.9536438 C145.4060429 -1.1740749 145.4060429 -1.1740749 149.26183224 1.66601753 C151.03690345 3.68876379 152.51781901 5.75714992 154 8 C155.62123756 9.68913228 157.26126616 11.36057552 158.92553711 13.00732422 C159.82594223 13.90119843 160.72634735 14.79507263 161.65403748 15.71603394 C162.12260099 16.17885647 162.59116451 16.641679 163.07392693 17.11852646 C164.56014457 18.58709889 166.04257198 20.05940578 167.52406311 21.53274536 C171.73024095 25.71466706 175.94231163 29.89061862 180.15844727 34.0625 C182.7512959 36.62864493 185.33931505 39.19957806 187.92437935 41.77356339 C188.907735 42.75070453 189.89298485 43.72594321 190.8801403 44.69924545 C192.25131839 46.05131296 193.61594679 47.41001319 194.98022461 48.76904297 C195.75853134 49.53989227 196.53683807 50.31074158 197.33872986 51.10494995 C199 53 199 53 199 55 C199.5615104 55.2364709 200.1230208 55.4729418 200.70154667 55.71657848 C203.53964595 57.30133012 205.47765171 59.23204231 207.7752533 61.53474426 C208.24066814 61.99845025 208.70608297 62.46215624 209.18560129 62.93991393 C210.74172477 64.49274701 212.29059865 66.05261316 213.83959961 67.61254883 C214.9547858 68.72829927 216.07041279 69.84360929 217.18644714 70.95851135 C220.21573763 73.98722752 223.23881635 77.0220764 226.26083446 80.05804658 C229.42596932 83.23569028 232.59677469 86.40766531 235.76698303 89.58024597 C241.77499819 95.59448103 247.77789879 101.61379433 253.7789827 107.63494462 C260.5905841 114.46883488 267.40780332 121.29710896 274.22553241 128.1248852 C285.88399414 139.80072207 297.53825763 151.48073554 309.18774414 163.16552734 C309.68107555 163.66033795 310.17440697 164.15514855 310.68268782 164.66495341 C311.99368704 165.97991428 313.30462317 167.29493805 314.61555386 168.60996723 C319.72674942 173.73569425 319.72674942 173.73569425 324.8671875 178.83203125 C325.86981546 179.82549682 326.87241938 180.81898665 327.875 181.8125 C328.36613281 182.29525391 328.85726563 182.77800781 329.36328125 183.27539062 C331.99050145 185.88555096 334.48636397 188.54725674 336.87768555 191.37548828 C342.3151227 197.61148956 348.23703746 203.38085129 354.08984375 209.22265625 C355.36119407 210.49468167 356.63239604 211.76685539 357.90345764 213.03916931 C360.55698335 215.69416228 363.21229094 218.34735643 365.86889648 220.99926758 C369.25566535 224.38033978 372.63792393 227.76588258 376.01885128 231.15279484 C378.63973018 233.77730568 381.26300892 236.39940744 383.88699532 239.02081108 C385.13432544 240.26747921 386.38092731 241.51487648 387.62675285 242.76304817 C393.38416463 248.52892399 399.11419483 254.25463151 405.317276 259.54634094 C407.95487374 261.82488921 410.42403921 264.26189659 412.890625 266.72265625 C413.4025238 267.23122665 413.91442261 267.73979706 414.4418335 268.26377869 C415.50841201 269.32535424 416.57369659 270.38823136 417.63769531 271.45239258 C419.25568431 273.06817656 420.88154317 274.67575862 422.5078125 276.28320312 C423.5525721 277.32503093 424.5968597 278.36733231 425.640625 279.41015625 C426.57422852 280.33965088 427.50783203 281.26914551 428.46972656 282.22680664 C431 285 431 285 433.02246094 288.03686523 C435.08446648 291.12656416 437.31350966 293.44360358 440 296 C447.33333333 303.33333333 454.66666667 310.66666667 462 318 C461.20238752 319.28160155 460.40407567 320.56276787 459.60546875 321.84375 C459.16098389 322.55724609 458.71649902 323.27074219 458.25854492 324.00585938 C456.93422428 326.10422038 455.6361929 328.13006526 454 330 C453.34 330 452.68 330 452 330 C451.75170441 330.59595474 451.50340881 331.19190948 451.24758911 331.80592346 C449.80564111 334.34180988 448.40578842 335.4191665 446.03857422 337.10522461 C440.34654088 341.38287175 435.40834399 346.28594152 430.3828125 351.31640625 C429.394166 352.30115441 428.40530061 353.28568284 427.41622925 354.27000427 C425.36067816 356.31815439 423.30896449 358.37005577 421.25976562 360.42456055 C418.64237882 363.04777262 416.01372193 365.65936468 413.38189888 368.26808262 C411.34341397 370.29180402 409.3119316 372.32244377 407.28237534 374.35511589 C406.31593312 375.32104749 405.34714942 376.28464262 404.37591934 377.24575996 C403.01962284 378.58964179 401.6739015 379.94417074 400.32861328 381.29907227 C399.56300079 382.06405533 398.79738831 382.82903839 398.00857544 383.61720276 C395.7949502 386.24325305 394.41648159 388.8821548 393 392 C388.24568924 391.11763816 385.7239168 388.13785436 382.43265152 384.80738163 C381.77125878 384.15004962 381.10986604 383.4927176 380.42843109 382.81546643 C378.19543886 380.59248626 375.97337346 378.3588893 373.7510376 376.1252594 C372.1436755 374.52063558 370.53565794 372.91666811 368.92703891 371.31330436 C364.4940736 366.89096837 360.07057258 362.45926839 355.64851451 358.02602947 C351.37252728 353.74213312 347.08952905 349.46526547 342.80671028 345.18820182 C333.50393519 335.8973677 324.20970249 326.59802504 314.91895346 317.29516672 C306.78950895 309.15519829 298.65708482 301.01822102 290.52169037 292.88419914 C289.98267643 292.34526923 289.44366249 291.80633933 288.8883148 291.25107821 C286.70045571 289.06357135 284.51258073 286.87608038 282.32468309 284.68861208 C261.78982562 264.15772201 241.26332795 243.61849257 220.7408382 223.07524062 C202.49295649 204.80898478 184.23880121 186.54902211 165.97900391 168.29467773 C164.80638719 167.12240745 163.63377064 165.95013699 162.46115425 164.77786637 C161.88144483 164.19832794 161.3017354 163.61878951 160.70445902 163.02168931 C157.78650973 160.10459351 154.8685753 157.18748286 151.95065689 154.27035618 C151.37504193 153.69489829 150.79942696 153.11944041 150.20636912 152.52654441 C134.96430061 137.2884622 119.72695954 122.04565446 104.49113822 106.80132622 C102.8525919 105.16187282 101.21404487 103.52242014 99.57549626 101.88296903 C98.48845418 100.79532583 97.40141586 99.70767889 96.31438131 98.62002817 C88.72384321 91.02526216 81.13147752 83.43232745 73.53787405 75.8406264 C63.75512368 66.06031458 53.9756184 56.27677754 44.20189843 46.48744077 C39.48555137 41.76373243 34.76750318 37.04174653 30.04520226 32.32398796 C25.72956934 28.01240547 21.41852258 23.69629395 17.1112251 19.37638473 C15.54513636 17.80734695 13.97732823 16.24002324 12.40771177 14.67451448 C10.28852309 12.56037235 8.17547864 10.44028169 6.06398392 8.31845951 C5.44103693 7.69990901 4.81808994 7.08135851 4.17626578 6.44406405 C0 2.22830529 0 2.22830529 0 0 Z " fill="#2F64F6" transform="translate(301,68)"/>
<path d="M0 0 C3.81145683 1.57811964 6.23428438 3.98064147 9.13574219 6.87695312 C9.63375839 7.37146469 10.1317746 7.86597626 10.6448822 8.37547302 C12.28393562 10.00574803 13.91559366 11.64320085 15.546875 13.28125 C16.68429815 14.41732581 17.82201804 15.5531046 18.96002197 16.68859863 C21.34038451 19.06601555 23.71709882 21.44700548 26.09130859 23.83056641 C29.14017706 26.890855 32.1979704 29.94204349 35.25852585 32.99063873 C37.60749631 35.33239761 39.95170142 37.67887996 42.29447174 40.02684021 C43.42057586 41.15428143 44.54817561 42.28023078 45.67726898 43.40467834 C47.25033812 44.97269097 48.81689086 46.54693176 50.38183594 48.12304688 C51.27578064 49.01858276 52.16972534 49.91411865 53.09075928 50.83679199 C55 53 55 53 55 55 C55.58426758 55.26047119 56.16853516 55.52094238 56.77050781 55.78930664 C60.71445839 57.93101173 63.60568414 61.27832442 66.75 64.4375 C67.44738281 65.11876953 68.14476562 65.80003906 68.86328125 66.50195312 C69.52199219 67.16001953 70.18070313 67.81808594 70.859375 68.49609375 C71.76381348 69.39606079 71.76381348 69.39606079 72.68652344 70.31420898 C74 72 74 72 74 75 C72.05859375 76.76171875 72.05859375 76.76171875 69.4375 78.6875 C66.14881113 81.10521191 63.41627192 83.58429128 60.78323174 86.6818409 C57.21547866 90.80096033 53.45986803 94.67495311 49.59719849 98.5163269 C48.88546852 99.22820573 48.17373855 99.94008456 47.44044101 100.67353547 C45.0761055 103.0371814 42.70822488 105.39724245 40.34033203 107.75732422 C38.63628743 109.45944802 36.93247157 111.16180084 35.22886658 112.86436462 C31.09570908 116.99395986 26.96030937 121.12129981 22.82401533 125.24775319 C18.00613684 130.0545283 13.1915471 134.86459193 8.37726389 139.67496754 C-0.20897071 148.25414982 -8.797073 156.83145965 -17.38671875 165.40722656 C-17.89987428 165.91955428 -18.41302982 166.43188201 -18.94173552 166.95973481 C-22.58610876 170.59820487 -26.23054843 174.2366084 -29.875 177.875 C-34.04855183 182.04161736 -38.22206876 186.20826967 -42.39550781 190.375 C-42.90985358 190.88851764 -43.42419935 191.40203528 -43.95413135 191.93111406 C-52.52048957 200.48380169 -61.08489546 209.03844174 -69.64790261 217.59448445 C-74.92768002 222.86977669 -80.20923194 228.14328045 -85.49306925 233.41450627 C-89.53320105 237.44524164 -93.57081719 241.47848906 -97.60749626 245.51268196 C-99.26713462 247.1704406 -100.92764093 248.82733081 -102.58905602 250.48330879 C-104.84802852 252.7351179 -107.10394617 254.98994283 -109.35910034 257.24557495 C-110.02454672 257.90742637 -110.68999309 258.56927778 -111.37560451 259.2511853 C-111.9759061 259.85286124 -112.57620769 260.45453718 -113.19470024 261.07444572 C-113.71605895 261.59488264 -114.23741766 262.11531955 -114.77457511 262.65152729 C-116.11482766 264.00418366 -116.11482766 264.00418366 -117 266 C-165.51 266 -214.02 266 -264 266 C-261.87313185 261.74626369 -259.24900916 258.98831743 -255.91723633 255.70605469 C-254.98269119 254.77348091 -254.98269119 254.77348091 -254.02926636 253.82206726 C-251.96807764 251.76736958 -249.90000592 249.71974076 -247.83203125 247.671875 C-246.39383408 246.23995195 -244.95615332 244.80751005 -243.51896667 243.37457275 C-239.72991533 239.59883064 -235.93534819 235.82868488 -232.13916016 232.06011963 C-226.07995254 226.0439877 -220.0273232 220.02125797 -213.9780941 213.9950943 C-211.8718216 211.89897357 -209.76212709 209.80634398 -207.65205383 207.71405029 C-199.2351888 199.38378634 -199.2351888 199.38378634 -191.33329773 190.56939697 C-189.03767034 187.86726181 -186.59650786 185.41535615 -184 183 C-183.34 183 -182.68 183 -182 183 C-181.6434946 182.15614353 -181.6434946 182.15614353 -181.27978706 181.29523945 C-179.70966918 178.47930499 -177.80554003 176.55678771 -175.52340698 174.27616882 C-175.06590124 173.81624867 -174.6083955 173.35632851 -174.13702595 172.88247138 C-172.60501962 171.34483619 -171.06597867 169.81444447 -169.52685547 168.28393555 C-168.4258318 167.18183873 -167.32524128 166.07930904 -166.22505188 164.97637939 C-163.23549628 161.98197505 -160.23972426 158.99386167 -157.24267721 156.00695777 C-154.1027612 152.87583239 -150.96812556 149.73942891 -147.83279419 146.60371399 C-142.56185485 141.33371152 -137.28705666 136.06759666 -132.00976562 130.80395508 C-125.92173351 124.73161201 -119.83890656 118.65409536 -113.75908172 112.57353562 C-107.27507415 106.08885031 -100.78725467 99.60798899 -94.29832697 93.12822747 C-92.43564532 91.26766978 -90.57366851 89.40640922 -88.71184921 87.54498863 C-85.7741284 84.60827897 -82.83384666 81.67415634 -79.8916378 78.74194336 C-78.81695453 77.67015978 -77.74309167 76.59755278 -76.67014885 75.52402687 C-71.51160121 70.36373821 -66.31837012 65.30371568 -60.77696419 60.55181408 C-57.95368912 58.08626185 -55.31611612 55.44779443 -52.67578125 52.78930664 C-52.09915237 52.21282379 -51.5225235 51.63634094 -50.92842102 51.04238892 C-49.05406239 49.16734273 -47.18325455 47.28879766 -45.3125 45.41015625 C-44.00135899 44.09714694 -42.68999463 42.78436063 -41.37841797 41.4717865 C-37.95022763 38.03980344 -34.52505278 34.60482651 -31.1005249 31.16918945 C-27.59619796 27.65457813 -24.08898917 24.14284511 -20.58203125 20.63085938 C-13.71855143 13.75669956 -6.85825799 6.87936931 0 0 Z " fill="#254EF5" transform="translate(565,689)"/>
<path d="M0 0 C8.66103318 0.35153321 17.32296356 0.51818942 25.98939252 0.67280746 C43.76632324 0.9939376 61.52998833 1.53646365 79.29599035 2.23283923 C77.77833815 5.8006229 75.68978731 8.08774694 72.95814359 10.81678164 C72.04151185 11.73739547 71.12488012 12.65800931 70.18047166 13.60652053 C69.15671946 14.62456667 68.13287494 15.64251999 67.10894811 16.6603905 C66.02609696 17.74411358 64.94368531 18.82827596 63.86167669 19.91284025 C60.883469 22.89552803 57.89904739 25.87193026 54.9135958 28.84736502 C51.69662825 32.05570992 48.48542785 35.26981779 45.27352941 38.48323596 C39.70668495 44.05113001 34.13618516 49.61534533 28.56319845 55.17709124 C20.50556331 63.21848455 12.45344484 71.26538319 4.4026698 79.3136439 C-8.6587671 92.37070163 -21.72466573 105.42328514 -34.79336512 118.4730736 C-47.48971581 131.15107124 -60.18396793 143.83116404 -72.87539637 156.51408923 C-73.65746377 157.29563117 -74.43953116 158.07717312 -75.24529757 158.88239816 C-79.16861734 162.80310789 -83.09189582 166.72385895 -87.01515377 170.64463055 C-119.57170522 203.18044259 -152.13549596 235.70900175 -184.70400965 268.23283923 C-188.1426 266.60726601 -190.38146157 264.79335237 -193.07022059 262.07780993 C-193.92501002 261.21964175 -194.77979945 260.36147357 -195.66049159 259.47730029 C-196.5771963 258.54713595 -197.49390101 257.61697161 -198.43838465 256.65862048 C-199.39947948 255.69124649 -200.36109713 254.72439167 -201.32321131 253.75803149 C-203.85611344 251.21183793 -206.38339856 248.66014802 -208.90908778 246.10680163 C-212.9354063 242.03737579 -216.96830179 237.97449973 -221.0047375 233.91511118 C-222.40287221 232.50688913 -223.79735618 231.09504545 -225.19174159 229.68311083 C-229.65676898 225.18446484 -234.17519197 220.83724257 -238.98675501 216.71063769 C-242.91234342 213.33243834 -246.57331092 209.67274818 -250.26650965 206.04533923 C-251.09731043 205.25192126 -251.92811121 204.45850329 -252.78408778 203.64104235 C-253.56332606 202.87340563 -254.34256434 202.10576891 -255.1454159 201.31487048 C-256.20804652 200.28196887 -256.20804652 200.28196887 -257.29214442 199.22820055 C-258.70400965 197.23283923 -258.70400965 197.23283923 -258.62984812 195.46827376 C-257.25402222 192.14634576 -254.82415114 189.95128945 -252.30245936 187.47052538 C-251.73343543 186.89893818 -251.16441151 186.32735098 -250.57814443 185.73844296 C-248.66524829 183.82059663 -246.74180982 181.91368481 -244.81826746 180.00652087 C-243.44629552 178.63539497 -242.0749835 177.26360846 -240.70428431 175.8912102 C-236.97527846 172.16134169 -233.23707667 168.44081313 -229.49720061 164.72184837 C-225.58639795 160.82978539 -221.68407549 156.92923899 -217.78085291 153.0295769 C-210.38027202 145.63833123 -202.97207805 138.25476494 -195.5611366 130.87390906 C-187.14614412 122.49234848 -178.73957571 114.10236085 -170.33374989 105.71160865 C-155.96225602 91.36618194 -141.58444066 77.02711661 -127.1995846 62.69508898 C-126.59143876 62.08916192 -125.98329292 61.48323487 -125.35671842 60.85894638 C-124.24085855 59.74719234 -123.12495342 58.63548373 -122.00899017 57.52383345 C-107.18479773 43.23928889 -107.18479773 43.23928889 -94.54802382 27.09572089 C-72.21319804 -6.91195359 -36.1345655 -1.49302251 0 0 Z " fill="#65DBFB" transform="translate(1002.7040096521378,65.76716077327728)"/>
<path d="M0 0 C8.66103318 0.35153321 17.32296356 0.51818942 25.98939252 0.67280746 C43.76632324 0.9939376 61.52998833 1.53646365 79.29599035 2.23283923 C78.96599035 3.22283923 78.63599035 4.21283923 78.29599035 5.23283923 C77.96599035 4.57283923 77.63599035 3.91283923 77.29599035 3.23283923 C57.68661474 -2.70002341 38.02237861 -6.17892346 17.67099035 -8.14216077 C16.90286693 -8.21872986 16.1347435 -8.29529894 15.34334362 -8.3741883 C-24.47725095 -12.22289159 -58.31712348 -4.09862983 -89.49367666 21.57062036 C-117.50994938 44.88470837 -143.01113006 71.12705537 -168.02159929 97.58192015 C-169.64586861 99.29994981 -171.27140682 101.01677185 -172.89708769 102.73346579 C-201.18805181 132.62588824 -228.75652137 163.12284089 -255.70400965 194.23283923 C-256.36400965 193.90283923 -257.02400965 193.57283923 -257.70400965 193.23283923 C-117.70400965 53.23283923 -117.70400965 53.23283923 -115.03054965 50.56282008 C-103.95676509 39.5268413 -103.95676509 39.5268413 -94.54802382 27.09572089 C-72.21319804 -6.91195359 -36.1345655 -1.49302251 0 0 Z " fill="#7EE1FB" transform="translate(1002.7040096521378,65.76716077327728)"/>
<path d="M0 0 C3.5747899 1.5180728 5.85811724 3.61574711 8.58496094 6.35791016 C9.48559265 7.25869293 10.38622437 8.15947571 11.31414795 9.08755493 C12.28766481 10.07128408 13.26107125 11.0551225 14.234375 12.0390625 C15.23713161 13.04555128 16.24033222 14.05159789 17.24395752 15.05722046 C19.87873813 17.69962147 22.50745611 20.34797428 25.13494873 22.99761963 C27.81939688 25.70256052 30.50954622 28.40181821 33.19921875 31.1015625 C38.47173618 36.39550174 43.73786057 41.69574283 49 47 C46 47 46 47 43.96882629 45.32958984 C43.19383286 44.54793457 42.41883942 43.7662793 41.62036133 42.9609375 C40.29933159 41.63956787 40.29933159 41.63956787 38.95161438 40.29150391 C37.9949257 39.31949434 37.03840187 38.3473225 36.08203125 37.375 C35.10048321 36.38785727 34.11827108 35.40137445 33.13542175 34.41552734 C30.54935928 31.81800608 27.97243141 29.21160207 25.39727783 26.60327148 C22.76833716 23.94365225 20.13089193 21.29249692 17.49414062 18.640625 C12.32104678 13.43534877 7.15756993 8.22066312 2 3 C-2.97001416 7.16718072 -7.6455365 11.50424288 -12.2197113 16.09945679 C-12.91172907 16.79062013 -13.60374684 17.48178348 -14.31673485 18.19389117 C-16.61905298 20.49457119 -18.91779495 22.79879037 -21.21655273 25.10302734 C-22.87252173 26.7592786 -24.52871132 28.41530931 -26.18510437 30.07113647 C-30.67025959 34.55600523 -35.15232866 39.04394672 -39.63384509 43.53245115 C-43.84660341 47.75083354 -48.06167357 51.9669036 -52.27673078 56.18298872 C-60.62158641 64.53002924 -68.96420962 72.87929728 -77.30541992 81.22998047 C-85.40482937 89.33857859 -93.50529563 97.44611856 -101.60717773 105.55224609 C-102.10715393 106.05248501 -102.60713012 106.55272393 -103.12225711 107.0681216 C-105.6306694 109.57783899 -108.1391024 112.08753568 -110.6475457 114.59722209 C-131.43490842 135.39493993 -152.21860746 156.19631666 -173 177 C-173.66 176.67 -174.32 176.34 -175 176 C-174.40308885 175.40401064 -173.80617769 174.80802128 -173.19117832 174.19397163 C-158.68400828 159.70886181 -144.17958883 145.22100283 -129.6782465 130.73005867 C-122.66551522 123.7224892 -115.65184739 116.71586188 -108.63598633 109.71142578 C-102.52276097 103.60815076 -96.41128057 97.50313484 -90.30191129 91.39599979 C-87.06537769 88.16077269 -83.82796208 84.92643919 -80.58845711 81.69418716 C-77.54204102 78.6545368 -74.49795598 75.6125718 -71.45567513 72.56878281 C-70.33624565 71.4496294 -69.21595302 70.33133863 -68.09475327 69.21395874 C-66.56888159 67.69303288 -65.04609233 66.16908727 -63.52406311 64.64431763 C-62.66956101 63.79073732 -61.81505892 62.93715702 -60.93466282 62.05771065 C-58.95523653 60.14951676 -58.95523653 60.14951676 -58 58 C-57.34 58 -56.68 58 -56 58 C-55.74025391 57.41573242 -55.48050781 56.83146484 -55.21289062 56.22949219 C-53.915344 53.84438836 -52.50658878 52.24809363 -50.59375 50.328125 C-49.93246094 49.66425781 -49.27117187 49.00039063 -48.58984375 48.31640625 C-47.90019531 47.63449219 -47.21054687 46.95257813 -46.5 46.25 C-45.81035156 45.55261719 -45.12070312 44.85523438 -44.41015625 44.13671875 C-43.74886719 43.47800781 -43.08757812 42.81929688 -42.40625 42.140625 C-41.80103516 41.53766602 -41.19582031 40.93470703 -40.57226562 40.31347656 C-39 39 -39 39 -37 39 C-36.74094879 38.41563171 -36.48189758 37.83126343 -36.21499634 37.22918701 C-34.90766642 34.83059305 -33.49556464 33.25458935 -31.56005859 31.33300781 C-30.50919571 30.28237152 -30.50919571 30.28237152 -29.43710327 29.21051025 C-28.68184357 28.46557312 -27.92658386 27.72063599 -27.1484375 26.953125 C-26.37440582 26.18192322 -25.60037415 25.41072144 -24.80288696 24.6161499 C-22.33158077 22.15603144 -19.85340817 19.70296152 -17.375 17.25 C-15.69745948 15.58249106 -14.02037055 13.91452768 -12.34375 12.24609375 C-8.23439081 8.1587763 -4.11937353 4.07722304 0 0 Z " fill="#4B73F6" transform="translate(565,438)"/>
</svg>
